<?xml version="1.0" encoding="UTF-8" standalone="no"?>
<!-- Created with Inkscape (http://www.inkscape.org/) -->

<svg
   width="210mm"
   height="297mm"
   viewBox="0 0 210 297"
   version="1.1"
   id="svg5"
   xml:space="preserve"
   inkscape:version="1.2.2 (b0a8486541, 2022-12-01)"
   sodipodi:docname="logos.svg"
   xmlns:inkscape="http://www.inkscape.org/namespaces/inkscape"
   xmlns:sodipodi="http://sodipodi.sourceforge.net/DTD/sodipodi-0.dtd"
   xmlns="http://www.w3.org/2000/svg"
   xmlns:svg="http://www.w3.org/2000/svg"><sodipodi:namedview
     id="namedview7"
     pagecolor="#ffffff"
     bordercolor="#000000"
     borderopacity="0.25"
     inkscape:showpageshadow="2"
     inkscape:pageopacity="0.0"
     inkscape:pagecheckerboard="0"
     inkscape:deskcolor="#d1d1d1"
     inkscape:document-units="mm"
     showgrid="false"
     inkscape:zoom="0.69664703"
     inkscape:cx="312.92748"
     inkscape:cy="844.04293"
     inkscape:window-width="1920"
     inkscape:window-height="1011"
     inkscape:window-x="0"
     inkscape:window-y="0"
     inkscape:window-maximized="1"
     inkscape:current-layer="layer1" /><defs
     id="defs2" /><g
     inkscape:label="Camada 1"
     inkscape:groupmode="layer"
     id="layer1"><g
       id="g2501"
       transform="translate(22.831138,170.51429)"
       inkscape:export-filename="logo.png"
       inkscape:export-xdpi="96"
       inkscape:export-ydpi="96"><path
         id="path111-6"
         style="fill:#ffdf13;fill-opacity:1;stroke:#e10000;stroke-width:0.8;stroke-dasharray:none;stroke-opacity:1"
         d="m 60.808691,8.7736247 c -12.635322,-7.52e-5 -22.878288,9.9599323 -22.87819,22.2461873 -2.805635,4.335012 -10.707125,0.6704 -12.189422,3.480924 -0.681415,2.27467 2.807748,4.807361 6.957199,6.190837 -1.107684,0.798934 -0.613806,1.374637 0.06242,2.138546 1.96376,1.335153 6.551766,2.170691 9.178363,0.765153 0.632612,1.774662 1.970596,4.421701 4.427832,5.774479 -1.928971,1.527605 -7.57598,4.671018 -8.619715,11.017398 -3.026728,18.403873 14.646662,25.611727 25.962711,28.310404 11.316058,2.698667 30.537409,3.456625 43.475501,-6.097336 12.97619,-9.582096 12.86763,-21.587965 13.48963,-29.559553 0.62199,-7.971588 -4.72621,-19.446901 -8.00022,-17.846388 -4.96787,2.428568 -8.85327,8.646114 -14.350797,9.179554 -5.814928,1.169589 -8.639128,-1.654263 -18.921595,-0.415268 2.781466,-3.772623 4.279587,-8.2968 4.284493,-12.938745 C 83.686999,18.733562 73.444033,8.773554 60.80871,8.7736297 Z"
         sodipodi:nodetypes="cccccccssszsccccc" /><path
         id="path923"
         style="fill:#e10000;fill-opacity:1;stroke:none;stroke-width:0.8;stroke-dasharray:none"
         d="m 55.131011,26.76654 c 0,2.527766 -2.07603,4.576925 -4.636942,4.576925 -2.560913,0 -4.635161,-2.04916 -4.636943,-4.576925 -0.0019,-2.557266 3.54587,-0.677702 6.546911,-3.332834 1.557005,-1.377541 2.726974,0.805067 2.726974,3.332834 z"
         sodipodi:nodetypes="sssss" /></g><path
       id="path111-6-3"
       style="fill:#000000;fill-opacity:1;stroke:none;stroke-width:0.8;stroke-dasharray:none;stroke-opacity:1"
       d="m 83.640992,92.814923 c -12.6353,-7.5e-5 -22.87829,9.959947 -22.87819,22.246187 -2.80562,4.33501 -10.70713,0.6704 -12.18943,3.48092 -0.68142,2.27467 2.80775,4.80736 6.9572,6.19084 -1.10769,0.79893 -0.6142,1.37447 0.062,2.13838 1.96376,1.33514 6.55217,2.17086 9.17877,0.76532 0.6326,1.77467 1.9704,4.42155 4.42763,5.77433 -1.92897,1.52761 -7.5759,4.67104 -8.61963,11.01741 -3.02672,18.40385 14.64672,25.61175 25.96276,28.31042 11.316051,2.69866 30.537298,3.45665 43.475378,-6.09731 12.97619,-9.58208 12.86763,-21.58786 13.48963,-29.55943 0.62199,-7.97158 -4.72603,-19.44697 -8.00004,-17.84646 -4.96787,2.42857 -8.85354,8.64585 -14.35106,9.17929 -5.81492,1.16959 -8.63888,-1.65395 -18.92133,-0.41496 2.78146,-3.77262 4.27959,-8.29681 4.28449,-12.93875 1e-4,-12.28624 -10.242877,-22.246263 -22.878188,-22.246187 z m -7.44709,14.233237 c 1.05485,0.0205 1.7694,1.78465 1.7694,3.75946 0,2.52777 -2.07601,4.57698 -4.63692,4.57698 -2.56091,0 -4.63515,-2.04922 -4.63693,-4.57698 -0.002,-2.55726 3.54585,-0.67748 6.54689,-3.33261 0.34059,-0.30134 0.66221,-0.43258 0.95756,-0.42685 z"
       inkscape:export-filename="logo_black.png"
       inkscape:export-xdpi="96"
       inkscape:export-ydpi="96" /><path
       id="path111-6-3-0"
       style="fill:#e6e6e6;fill-opacity:1;stroke:none;stroke-width:0.8;stroke-dasharray:none;stroke-opacity:1"
       d="M 83.641005,6.3379627 C 71.0057,6.3378877 60.762706,16.297907 60.762806,28.58415 c -2.80562,4.335012 -10.707131,0.670401 -12.189431,3.480924 -0.68142,2.274668 2.807751,4.807358 6.957201,6.190837 -1.10769,0.798929 -0.6142,1.374461 0.062,2.138371 1.96376,1.335148 6.55217,2.170866 9.17877,0.765328 0.6326,1.774668 1.9704,4.421546 4.427634,5.774324 -1.928974,1.527609 -7.575904,4.671042 -8.619634,11.017412 -3.02672,18.40385 14.646728,25.611749 25.962769,28.310419 11.316048,2.69866 30.537295,3.45665 43.475375,-6.09731 12.97618,-9.582079 12.86762,-21.587859 13.48962,-29.559427 0.62199,-7.971582 -4.72602,-19.446964 -8.00003,-17.846456 -4.96787,2.428568 -8.85354,8.645845 -14.35106,9.179285 -5.81492,1.169589 -8.63888,-1.653951 -18.92133,-0.414962 2.78146,-3.772616 4.27959,-8.296809 4.28449,-12.938745 C 106.51928,16.297907 96.276303,6.3378867 83.640995,6.3379627 Z m -7.44709,14.2332393 c 1.05485,0.02046 1.7694,1.784645 1.7694,3.759461 0,2.527763 -2.07601,4.576981 -4.636925,4.576981 -2.56091,0 -4.635154,-2.049219 -4.636934,-4.576981 -0.002,-2.557264 3.545854,-0.677484 6.546899,-3.332613 0.34059,-0.301337 0.66221,-0.432575 0.95756,-0.426848 z"
       inkscape:export-filename="logo_white.png"
       inkscape:export-xdpi="96"
       inkscape:export-ydpi="96" /></g></svg>
